# xmcd
#
# Track frame offsets:
#	150
#	14927
#	25007
#	34453
#	48614
#	66676
#	77885
#	88232
#	100187
#	114791
#	123342
#	136574
#	148118
#	160866
#	171946
#
# Disc length: 2527 seconds
#
# Revision: 1
# Processed by: cddbd v1.5.1PL2 Copyright (c) Steve Scherf et al.
# Submitted via: audiograbber 1.83.01
#
DISCID=d409dd0f
DTITLE=Various Artist - Christmas In Nashville
DYEAR=2002
DGENRE=
TTITLE0=Christmas- Loretta Lynn - Away In Manger
TTITLE1=Christmas- Merle Haggard - Santa Claus And Popcorn
TTITLE2=Christmas- Boxcar Willie - Up On The House Top
TTITLE3=Christmas- Gene Autry - Rudolph The Red Nosoed Reindeer
TTITLE4=Christmas- Bill Anderson - It Came Upon A Midnight Clear
TTITLE5=Christmas- Eddy Arnold - Christmas
TTITLE6=Christmas- Larry Gatlin - I Heard The Bells On Christmas Day
TTITLE7=Christmas- Frankie Laine - You're All I Want For Christmas
TTITLE8=Christmas- Waylon Jennings - O Come, All Ye Faithful
TTITLE9=Christmas- Porter Wagoner - We Wish You A Merry Christmas
TTITLE10=Christmas- Roy Clark - God Rest Ye Merry, Gentleman
TTITLE11=Christmas- Tex Ritter - Christmas Corrols By The Old Corral
TTITLE12=Christmas- Ernest Tubb - Blue Christmas
TTITLE13=Christmas- Kitty Wells - Here Comes Santa Claus
TTITLE14=Christmas- Glen Campbell - The Little Drummer Boy
EXTD=
EXTT0=
EXTT1=
EXTT2=
EXTT3=
EXTT4=
EXTT5=
EXTT6=
EXTT7=
EXTT8=
EXTT9=
EXTT10=
EXTT11=
EXTT12=
EXTT13=
EXTT14=
PLAYORDER=
